<svg data-v-423bf9ae="" xmlns="http://www.w3.org/2000/svg" viewBox="0 0 365 90" class="iconLeftSlogan"><!----><!----><!----><g data-v-423bf9ae="" id="0036811b-9ae4-4ecc-a6e1-0919b91cbd69" fill="#213210" transform="matrix(7.653061541007602,0,0,7.653061541007602,74.90967545269518,-25.71428851483524)"><path d="M5.04 10.08Q5.10 10.30 5.10 10.64L5.10 10.64Q5.10 10.96 5.04 11.20L5.04 11.20L1.12 11.20Q1.06 10.96 1.06 10.64L1.06 10.64Q1.06 10.30 1.12 10.08L1.12 10.08Q1.06 9.84 1.06 9.52L1.06 9.52Q1.06 9.18 1.12 8.96L1.12 8.96Q1.06 8.72 1.06 8.40L1.06 8.40Q1.06 8.06 1.12 7.84L1.12 7.84Q1.06 7.60 1.06 7.28L1.06 7.28Q1.06 6.94 1.12 6.72L1.12 6.72Q1.06 6.48 1.06 6.16L1.06 6.16Q1.06 5.82 1.12 5.60L1.12 5.60Q1.06 5.36 1.06 5.04L1.06 5.04Q1.06 4.70 1.12 4.48L1.12 4.48Q1.06 4.24 1.06 3.92L1.06 3.92Q1.06 3.58 1.12 3.36L1.12 3.36L2.24 3.36Q2.30 3.58 2.30 3.92L2.30 3.92Q2.30 4.24 2.24 4.48L2.24 4.48Q2.30 4.70 2.30 5.04L2.30 5.04Q2.30 5.36 2.24 5.60L2.24 5.60Q2.30 5.82 2.30 6.16L2.30 6.16Q2.30 6.48 2.24 6.72L2.24 6.72Q2.30 6.94 2.30 7.28L2.30 7.28Q2.30 7.60 2.24 7.84L2.24 7.84Q2.30 8.06 2.30 8.40L2.30 8.40Q2.30 8.72 2.24 8.96L2.24 8.96Q2.30 9.18 2.30 9.52L2.30 9.52Q2.30 9.84 2.24 10.08L2.24 10.08L5.04 10.08ZM8.96 4.48L7.84 4.48Q7.78 4.24 7.78 3.92L7.78 3.92Q7.78 3.58 7.84 3.36L7.84 3.36L8.96 3.36Q9.02 3.58 9.02 3.92L9.02 3.92Q9.02 4.24 8.96 4.48L8.96 4.48ZM10.08 10.08Q10.14 10.30 10.14 10.64L10.14 10.64Q10.14 10.96 10.08 11.20L10.08 11.20L6.72 11.20Q6.66 10.96 6.66 10.64L6.66 10.64Q6.66 10.30 6.72 10.08L6.72 10.08L7.84 10.08Q7.78 9.84 7.78 9.52L7.78 9.52Q7.78 9.18 7.84 8.96L7.84 8.96Q7.78 8.72 7.78 8.40L7.78 8.40Q7.78 8.06 7.84 7.84L7.84 7.84Q7.78 7.60 7.78 7.28L7.78 7.28Q7.78 6.94 7.84 6.72L7.84 6.72L7.00 6.72Q6.94 6.48 6.94 6.16L6.94 6.16Q6.94 5.82 7.00 5.60L7.00 5.60L8.96 5.60Q9.02 5.82 9.02 6.16L9.02 6.16Q9.02 6.48 8.96 6.72L8.96 6.72Q9.02 6.94 9.02 7.28L9.02 7.28Q9.02 7.60 8.96 7.84L8.96 7.84Q9.02 8.06 9.02 8.40L9.02 8.40Q9.02 8.72 8.96 8.96L8.96 8.96Q9.02 9.18 9.02 9.52L9.02 9.52Q9.02 9.84 8.96 10.08L8.96 10.08L10.08 10.08ZM12.80 6.16Q12.80 6.48 12.74 6.72L12.74 6.72L13.30 6.72Q13.36 6.94 13.36 7.28L13.36 7.28Q13.36 7.60 13.30 7.84L13.30 7.84L12.88 7.84Q12.94 8.06 12.94 8.40L12.94 8.40Q12.94 8.72 12.88 8.96L12.88 8.96Q12.94 9.18 12.94 9.52L12.94 9.52Q12.94 9.84 12.88 10.08L12.88 10.08Q12.94 10.30 12.94 10.64L12.94 10.64Q12.94 10.96 12.88 11.20L12.88 11.20L11.76 11.20Q11.70 10.96 11.70 10.64L11.70 10.64Q11.70 10.30 11.76 10.08L11.76 10.08Q11.70 9.84 11.70 9.52L11.70 9.52Q11.70 9.18 11.76 8.96L11.76 8.96Q11.70 8.72 11.70 8.40L11.70 8.40Q11.70 8.06 11.76 7.84L11.76 7.84Q11.70 7.60 11.70 7.28L11.70 7.28Q11.70 6.94 11.76 6.72L11.76 6.72Q11.70 6.48 11.70 6.16L11.70 6.16Q11.70 5.82 11.76 5.60L11.76 5.60L12.74 5.60Q12.80 5.82 12.80 6.16L12.80 6.16ZM16.24 7.84Q16.30 8.06 16.30 8.40L16.30 8.40Q16.30 8.72 16.24 8.96L16.24 8.96Q16.30 9.18 16.30 9.52L16.30 9.52Q16.30 9.84 16.24 10.08L16.24 10.08Q16.30 10.30 16.30 10.64L16.30 10.64Q16.30 10.96 16.24 11.20L16.24 11.20L15.12 11.20Q15.06 10.96 15.06 10.64L15.06 10.64Q15.06 10.30 15.12 10.08L15.12 10.08Q15.06 9.84 15.06 9.52L15.06 9.52Q15.06 9.18 15.12 8.96L15.12 8.96Q15.06 8.72 15.06 8.40L15.06 8.40Q15.06 8.06 15.12 7.84L15.12 7.84Q15.06 7.60 15.06 7.28L15.06 7.28Q15.06 6.94 15.12 6.72L15.12 6.72L13.30 6.72Q13.24 6.48 13.24 6.16L13.24 6.16Q13.24 5.82 13.30 5.60L13.30 5.60L15.54 5.60Q15.60 5.82 15.60 6.16L15.60 6.16Q15.60 6.48 15.54 6.72L15.54 6.72L16.24 6.72Q16.30 6.94 16.30 7.28L16.30 7.28Q16.30 7.60 16.24 7.84L16.24 7.84ZM21.90 8.40Q21.90 8.72 21.84 8.96L21.84 8.96L21.42 8.96Q21.48 9.18 21.48 9.52L21.48 9.52Q21.48 9.84 21.42 10.08L21.42 10.08L20.72 10.08Q20.78 10.30 20.78 10.64L20.78 10.64Q20.78 10.96 20.72 11.20L20.72 11.20L18.48 11.20Q18.42 10.96 18.42 10.64L18.42 10.64Q18.42 10.30 18.48 10.08L18.48 10.08L17.78 10.08Q17.72 9.84 17.72 9.52L17.72 9.52Q17.72 9.18 17.78 8.96L17.78 8.96L17.36 8.96Q17.30 8.72 17.30 8.40L17.30 8.40Q17.30 8.06 17.36 7.84L17.36 7.84L17.78 7.84Q17.72 7.60 17.72 7.28L17.72 7.28Q17.72 6.94 17.78 6.72L17.78 6.72L18.48 6.72Q18.42 6.48 18.42 6.16L18.42 6.16Q18.42 5.82 18.48 5.60L18.48 5.60L20.72 5.60Q20.78 5.82 20.78 6.16L20.78 6.16Q20.78 6.48 20.72 6.72L20.72 6.72L21.42 6.72Q21.48 6.94 21.48 7.28L21.48 7.28Q21.48 7.60 21.42 7.84L21.42 7.84L21.84 7.84Q21.90 8.06 21.90 8.40L21.90 8.40ZM20.30 8.96L20.72 8.96Q20.66 8.72 20.66 8.40L20.66 8.40Q20.66 8.06 20.72 7.84L20.72 7.84L20.30 7.84Q20.24 7.60 20.24 7.28L20.24 7.28Q20.24 6.94 20.30 6.72L20.30 6.72L18.90 6.72Q18.96 6.94 18.96 7.28L18.96 7.28Q18.96 7.60 18.90 7.84L18.90 7.84L18.48 7.84Q18.54 8.06 18.54 8.40L18.54 8.40Q18.54 8.72 18.48 8.96L18.48 8.96L18.90 8.96Q18.96 9.18 18.96 9.52L18.96 9.52Q18.96 9.84 18.90 10.08L18.90 10.08L20.30 10.08Q20.24 9.84 20.24 9.52L20.24 9.52Q20.24 9.18 20.30 8.96L20.30 8.96ZM27.44 6.72Q27.50 6.94 27.50 7.28L27.50 7.28Q27.50 7.60 27.44 7.84L27.44 7.84L26.32 7.84Q26.26 7.60 26.26 7.28L26.26 7.28Q26.26 6.94 26.32 6.72L26.32 6.72L25.34 6.72Q25.40 6.94 25.40 7.28L25.40 7.28Q25.40 7.60 25.34 7.84L25.34 7.84L24.92 7.84Q24.98 8.06 24.98 8.40L24.98 8.40Q24.98 8.72 24.92 8.96L24.92 8.96Q24.98 9.18 24.98 9.52L24.98 9.52Q24.98 9.84 24.92 10.08L24.92 10.08L25.76 10.08Q25.82 10.30 25.82 10.64L25.82 10.64Q25.82 10.96 25.76 11.20L25.76 11.20L22.96 11.20Q22.90 10.96 22.90 10.64L22.90 10.64Q22.90 10.30 22.96 10.08L22.96 10.08L23.80 10.08Q23.74 9.84 23.74 9.52L23.74 9.52Q23.74 9.18 23.80 8.96L23.80 8.96Q23.74 8.72 23.74 8.40L23.74 8.40Q23.74 8.06 23.80 7.84L23.80 7.84Q23.74 7.60 23.74 7.28L23.74 7.28Q23.74 6.94 23.80 6.72L23.80 6.72L22.96 6.72Q22.90 6.48 22.90 6.16L22.90 6.16Q22.90 5.82 22.96 5.60L22.96 5.60L24.36 5.60Q24.42 5.82 24.42 6.16L24.42 6.16Q24.42 6.48 24.36 6.72L24.36 6.72L24.92 6.72Q24.86 6.48 24.86 6.16L24.86 6.16Q24.86 5.82 24.92 5.60L24.92 5.60L27.02 5.60Q27.08 5.82 27.08 6.16L27.08 6.16Q27.08 6.48 27.02 6.72L27.02 6.72L27.44 6.72ZM33.10 9.52Q33.10 9.84 33.04 10.08L33.04 10.08Q33.10 10.30 33.10 10.64L33.10 10.64Q33.10 10.96 33.04 11.20L33.04 11.20L31.92 11.20Q31.86 10.96 31.86 10.64L31.86 10.64Q31.86 10.30 31.92 10.08L31.92 10.08Q31.86 9.84 31.86 9.52L31.86 9.52Q31.86 9.18 31.92 8.96L31.92 8.96L29.68 8.96Q29.74 9.18 29.74 9.52L29.74 9.52Q29.74 9.84 29.68 10.08L29.68 10.08Q29.74 10.30 29.74 10.64L29.74 10.64Q29.74 10.96 29.68 11.20L29.68 11.20L28.56 11.20Q28.50 10.96 28.50 10.64L28.50 10.64Q28.50 10.30 28.56 10.08L28.56 10.08Q28.50 9.84 28.50 9.52L28.50 9.52Q28.50 9.18 28.56 8.96L28.56 8.96L28.98 8.96Q28.92 8.72 28.92 8.40L28.92 8.40Q28.92 8.06 28.98 7.84L28.98 7.84Q28.92 7.60 28.92 7.28L28.92 7.28Q28.92 6.94 28.98 6.72L28.98 6.72L29.26 6.72Q29.20 6.48 29.20 6.16L29.20 6.16Q29.20 5.82 29.26 5.60L29.26 5.60L29.68 5.60Q29.62 5.36 29.62 5.04L29.62 5.04Q29.62 4.70 29.68 4.48L29.68 4.48L29.96 4.48Q29.90 4.24 29.90 3.92L29.90 3.92Q29.90 3.58 29.96 3.36L29.96 3.36L31.64 3.36Q31.70 3.58 31.70 3.92L31.70 3.92Q31.70 4.24 31.64 4.48L31.64 4.48L31.92 4.48Q31.98 4.70 31.98 5.04L31.98 5.04Q31.98 5.36 31.92 5.60L31.92 5.60L32.34 5.60Q32.40 5.82 32.40 6.16L32.40 6.16Q32.40 6.48 32.34 6.72L32.34 6.72L32.62 6.72Q32.68 6.94 32.68 7.28L32.68 7.28Q32.68 7.60 32.62 7.84L32.62 7.84Q32.68 8.06 32.68 8.40L32.68 8.40Q32.68 8.72 32.62 8.96L32.62 8.96L33.04 8.96Q33.10 9.18 33.10 9.52L33.10 9.52ZM31.50 7.84Q31.44 7.60 31.44 7.28L31.44 7.28Q31.44 6.94 31.50 6.72L31.50 6.72L31.22 6.72Q31.16 6.48 31.16 6.16L31.16 6.16Q31.16 5.82 31.22 5.60L31.22 5.60L30.38 5.60Q30.44 5.82 30.44 6.16L30.44 6.16Q30.44 6.48 30.38 6.72L30.38 6.72L30.10 6.72Q30.16 6.94 30.16 7.28L30.16 7.28Q30.16 7.60 30.10 7.84L30.10 7.84L31.50 7.84ZM36.96 10.08L37.80 10.08Q37.86 10.30 37.86 10.64L37.86 10.64Q37.86 10.96 37.80 11.20L37.80 11.20L35 11.20Q34.94 10.96 34.94 10.64L34.94 10.64Q34.94 10.30 35 10.08L35 10.08L35.84 10.08Q35.78 9.84 35.78 9.52L35.78 9.52Q35.78 9.18 35.84 8.96L35.84 8.96Q35.78 8.72 35.78 8.40L35.78 8.40Q35.78 8.06 35.84 7.84L35.84 7.84Q35.78 7.60 35.78 7.28L35.78 7.28Q35.78 6.94 35.84 6.72L35.84 6.72Q35.78 6.48 35.78 6.16L35.78 6.16Q35.78 5.82 35.84 5.60L35.84 5.60Q35.78 5.36 35.78 5.04L35.78 5.04Q35.78 4.70 35.84 4.48L35.84 4.48L35 4.48Q34.94 4.24 34.94 3.92L34.94 3.92Q34.94 3.58 35 3.36L35 3.36L37.80 3.36Q37.86 3.58 37.86 3.92L37.86 3.92Q37.86 4.24 37.80 4.48L37.80 4.48L36.96 4.48Q37.02 4.70 37.02 5.04L37.02 5.04Q37.02 5.36 36.96 5.60L36.96 5.60Q37.02 5.82 37.02 6.16L37.02 6.16Q37.02 6.48 36.96 6.72L36.96 6.72Q37.02 6.94 37.02 7.28L37.02 7.28Q37.02 7.60 36.96 7.84L36.96 7.84Q37.02 8.06 37.02 8.40L37.02 8.40Q37.02 8.72 36.96 8.96L36.96 8.96Q37.02 9.18 37.02 9.52L37.02 9.52Q37.02 9.84 36.96 10.08L36.96 10.08Z"></path></g><defs data-v-423bf9ae=""><linearGradient data-v-423bf9ae="" gradientTransform="rotate(25)" id="0ad7e691-8780-4b41-bca1-fffc95c57977" x1="0%" y1="0%" x2="100%" y2="0%"><stop data-v-423bf9ae="" offset="0%" style="stop-color: rgb(102, 108, 53); stop-opacity: 1;"></stop><stop data-v-423bf9ae="" offset="100%" style="stop-color: rgb(119, 214, 54); stop-opacity: 1;"></stop></linearGradient></defs><g data-v-423bf9ae="" id="a2239e73-8e41-40c0-8ce8-d9f1dc9492ce" transform="matrix(1.499985122828219,0,0,1.499985122828219,0.48903961754607295,1.000298180941762)" stroke="none" fill="url(#0ad7e691-8780-4b41-bca1-fffc95c57977)"><g><path d="M28 46H14a2.987 2.987 0 00-2.22 5A2.987 2.987 0 0014 56v1a3 3 0 003 3h8a3 3 0 003-3v-1a2.987 2.987 0 002.22-5A2.987 2.987 0 0028 46zm-14 2h14a1 1 0 010 2H14a1 1 0 010-2zm12 9a1 1 0 01-1 1h-8a1 1 0 01-1-1v-1h10v1zm2-3H14a1 1 0 010-2h14a1 1 0 010 2zM38 15a3.991 3.991 0 00-3.97 3.708l-3.411.615a4.013 4.013 0 00-1.3-1.573l2.239-5.795c.146.023.294.039.442.045a4.047 4.047 0 10-3.928-3.285l-6 2.76a3.994 3.994 0 00-1.339-1.061l.485-2.437A3.992 3.992 0 1017 4c0 .128.026.25.038.375L13.3 5.739a4.014 4.014 0 10-.643 5.233l2.586 1.72c-.154.42-.237.861-.243 1.308a3.994 3.994 0 001.826 3.349l-1.218 3.662c-.037 0-.071-.011-.108-.011-.8.003-1.575.284-2.192.794l-5.364-2.237c.032-.184.05-.37.056-.557a4 4 0 10-4.03 4l1.123 4.509a3.99 3.99 0 105.577 1.91l2.735-2.13a3.439 3.439 0 004.133.047l1.473 1.712a3.467 3.467 0 00-.338 4.5l-2.115 2.771a4 4 0 102.3 4.681h4.284a3.992 3.992 0 107.177-3.229l2.868-3.225c.56.294 1.181.45 1.813.454a3.986 3.986 0 001.907-7.494L38.03 23a4 4 0 10-.03-8zm-7 16c-.001.794.236 1.57.681 2.229l-2.868 3.225a3.773 3.773 0 00-3.067-.233l-1.593-2.464a3.444 3.444 0 00-.1-4.632l2.109-4.216a3.969 3.969 0 004.806-3.617l3.411-.615a4 4 0 001.712 1.817L34.97 27A4 4 0 0031 31zm-12.865 6.546l2.125-2.784c.706.286 1.49.315 2.215.083l1.59 2.459a3.974 3.974 0 00-.923 1.7h-4.284a3.958 3.958 0 00-.723-1.458zM23 31.5a1.5 1.5 0 11-3 0 1.5 1.5 0 013 0zM29 21a2 2 0 11-4 0 2 2 0 014 0zm3-15a2 2 0 110 4 2 2 0 010-4zM19 16a2 2 0 11.394-3.96h.006A2 2 0 0119 16zm2-14a2 2 0 11-.394 3.96 2 2 0 01-1.473-1.26.2.2 0 000-.024l-.008-.013A1.98 1.98 0 0119 4a2 2 0 012-2zm-3.3 4.261a4.015 4.015 0 001.557 1.325l-.485 2.437c-.9.049-1.757.403-2.429 1.005l-2.586-1.72c.154-.42.237-.861.243-1.308 0-.128-.026-.25-.038-.375L17.7 6.261zM10 10a2 2 0 111.867-2.7.2.2 0 000 .024l.009.016A1.979 1.979 0 0110 10zm8.727 7.972c.092.007.18.028.273.028a3.962 3.962 0 003.928-4.715l6-2.76c.221.274.477.517.761.725l-2.239 5.8A3.854 3.854 0 0027 17a3.983 3.983 0 00-2.618 7l-2.055 4.109a3.3 3.3 0 00-1.517-.039l-2.036-2.37a3.439 3.439 0 00-1.267-4.062l1.22-3.666zm-6.559 5.513a3.219 3.219 0 00.05 2.191l-2.787 2.17A3.96 3.96 0 007.03 27l-1.123-4.509a4 4 0 001.27-1.09l4.991 2.084zM2 19a2 2 0 114 0 2 2 0 01-4 0zm5 14a2 2 0 110-4 2 2 0 010 4zm8.5-7a1.5 1.5 0 01-1.22-.634.186.186 0 01-.01-.02c0-.006-.012-.009-.017-.015A1.5 1.5 0 1115.5 26zM15 42a2 2 0 110-4 2 2 0 010 4zm12 0a2 2 0 110-4 2 2 0 010 4zm8-9a2 2 0 110-4 2 2 0 010 4zm3-12a2 2 0 110-4 2 2 0 010 4z"></path></g></g><!----><g data-v-423bf9ae="" id="4f358a41-c4fe-4721-8e89-09a5d245762a" fill="#213210" transform="matrix(1.4953615838208973,0,0,1.4953615838208973,78.50592799871409,52.926940904793646)"><path d="M4.19 6.69L4.19 6.69Q3.63 6.69 3.33 6.38Q3.02 6.06 3.02 5.61L3.02 5.61Q3.02 5.50 3.06 5.35Q3.09 5.19 3.15 5.08L3.15 5.08Q3.33 5.17 3.69 5.20Q4.05 5.24 4.52 5.24L4.52 5.24Q5.24 5.24 6.14 5.17Q7.04 5.11 7.87 5.04Q8.69 4.97 9.32 4.91Q9.95 4.84 10.14 4.84L10.14 4.84Q10.65 4.84 10.88 5.23Q11.12 5.61 11.23 6.26L11.23 6.26Q10.86 6.23 10.51 6.21Q10.15 6.19 9.90 6.19L9.90 6.19Q9.45 6.19 9.00 6.22Q8.54 6.24 8.08 6.30L8.08 6.30Q7.88 6.71 7.64 7.26Q7.41 7.81 7.17 8.41Q6.94 9.02 6.73 9.61Q6.52 10.21 6.37 10.68L6.37 10.68Q6.06 11.61 5.83 12.39Q5.60 13.17 5.42 13.85Q5.25 14.53 5.12 15.15Q5.00 15.76 4.90 16.35L4.90 16.35Q3.96 16.21 3.33 15.18L3.33 15.18Q3.44 14.74 3.60 14.23Q3.77 13.72 3.98 13.07Q4.20 12.42 4.49 11.59Q4.79 10.77 5.17 9.72L5.17 9.72Q5.31 9.32 5.46 8.90Q5.61 8.47 5.76 8.05Q5.91 7.63 6.03 7.24Q6.15 6.85 6.23 6.52L6.23 6.52Q5.64 6.59 5.12 6.64Q4.59 6.69 4.19 6.69ZM22.43 9.21L22.43 9.21Q22.89 9.21 23.15 9.46Q23.41 9.72 23.41 10.16L23.41 10.16Q23.41 10.28 23.39 10.39Q23.37 10.51 23.34 10.60L23.34 10.60Q23.16 10.57 22.93 10.55Q22.71 10.53 22.40 10.53L22.40 10.53Q21.80 10.53 21.18 10.63Q20.57 10.74 20.01 10.81L20.01 10.81Q19.68 11.55 19.42 12.24Q19.15 12.94 18.96 13.51Q18.77 14.08 18.67 14.50Q18.56 14.92 18.55 15.13L18.55 15.13Q19.68 14.90 20.84 14.73Q21.99 14.56 23.27 14.48L23.27 14.48Q23.42 14.71 23.53 14.99Q23.63 15.27 23.63 15.60L23.63 15.60Q23.63 15.68 23.63 15.78Q23.63 15.88 23.60 15.97L23.60 15.97Q23.21 15.96 22.78 15.95Q22.34 15.95 21.64 15.95L21.64 15.95Q21.18 15.95 20.77 15.97Q20.36 15.99 19.94 16.03Q19.52 16.07 19.05 16.14Q18.58 16.21 17.99 16.31L17.99 16.31Q17.35 16.06 16.74 15.08L16.74 15.08Q16.98 14.57 17.41 13.54Q17.84 12.52 18.49 10.79L18.49 10.79Q17.86 10.60 17.67 10.09L17.67 10.09Q17.74 10.02 18.07 9.92Q18.41 9.81 18.90 9.70L18.90 9.70Q19.11 9.16 19.26 8.75Q19.40 8.34 19.52 7.99Q19.63 7.63 19.72 7.29Q19.81 6.94 19.89 6.54L19.89 6.54Q19.40 6.51 19.12 6.27Q18.84 6.02 18.84 5.63L18.84 5.63Q18.84 5.52 18.88 5.36Q18.91 5.21 18.96 5.10L18.96 5.10Q19.24 5.14 19.49 5.15Q19.75 5.17 20.17 5.17L20.17 5.17Q21.06 5.17 21.83 5.12Q22.60 5.07 23.22 5.01Q23.84 4.96 24.29 4.91Q24.74 4.86 24.98 4.86L24.98 4.86Q25.30 4.86 25.55 5.19Q25.80 5.53 25.93 6.15L25.93 6.15Q25.49 6.10 25.22 6.09Q24.95 6.08 24.74 6.08L24.74 6.08Q23.97 6.08 23.33 6.15Q22.69 6.23 22.11 6.31L22.11 6.31Q22.02 6.44 21.92 6.64Q21.81 6.83 21.64 7.18Q21.48 7.53 21.23 8.06Q20.99 8.60 20.64 9.39L20.64 9.39Q21.17 9.31 21.64 9.26Q22.11 9.21 22.43 9.21ZM32.61 12.43L32.61 12.43Q32.61 11.45 32.84 10.51Q33.07 9.56 33.49 8.71Q33.91 7.87 34.49 7.16Q35.07 6.45 35.76 5.94Q36.46 5.42 37.24 5.13Q38.02 4.84 38.85 4.84L38.85 4.84Q39.82 4.84 40.35 5.25Q40.89 5.66 40.89 6.38L40.89 6.38Q40.89 6.66 40.82 6.96Q40.74 7.25 40.59 7.54Q40.45 7.83 40.25 8.09Q40.05 8.36 39.82 8.55L39.82 8.55Q39.45 8.50 39.19 8.22Q38.92 7.95 38.85 7.59L38.85 7.59Q39.34 7.18 39.63 6.74Q39.91 6.30 39.91 5.94L39.91 5.94Q39.91 5.32 39.14 5.32L39.14 5.32Q38.82 5.32 38.48 5.45Q38.14 5.59 37.79 5.82Q37.44 6.06 37.11 6.40Q36.78 6.73 36.50 7.14L36.50 7.14Q34.55 9.94 34.55 12.87L34.55 12.87Q34.55 13.90 34.87 14.53Q35.20 15.16 35.73 15.27L35.73 15.27Q36.33 15.13 37.25 14.50Q38.18 13.87 39.27 12.87L39.27 12.87Q39.41 13.01 39.44 13.16L39.44 13.16Q39.03 13.69 38.60 14.18Q38.16 14.67 37.74 15.08Q37.31 15.48 36.90 15.79Q36.48 16.10 36.13 16.27L36.13 16.27Q34.40 16.24 33.50 15.27Q32.61 14.31 32.61 12.43ZM52.95 14.36L52.95 14.36Q52.95 13.78 53.14 12.85Q53.34 11.93 53.66 10.88L53.66 10.88Q52.74 10.95 51.81 11.06Q50.88 11.17 50.19 11.19L50.19 11.19Q49.56 12.66 49.19 13.89Q48.82 15.13 48.61 16.31L48.61 16.31Q48.08 16.18 47.73 15.87Q47.38 15.55 47.08 15.08L47.08 15.08Q47.19 14.85 47.34 14.50Q47.49 14.15 47.69 13.66Q47.89 13.16 48.15 12.50Q48.41 11.83 48.75 10.95L48.75 10.95Q48.29 10.75 48.13 10.40L48.13 10.40Q48.20 10.35 48.45 10.28Q48.69 10.22 49.06 10.15L49.06 10.15L49.24 9.70Q49.53 8.95 49.72 8.43Q49.91 7.91 50.04 7.41Q50.18 6.92 50.30 6.31Q50.41 5.71 50.58 4.79L50.58 4.79Q51.17 4.90 51.65 5.31Q52.14 5.71 52.49 6.29L52.49 6.29Q52.36 6.45 52.18 6.79Q52.00 7.13 51.78 7.59Q51.56 8.06 51.31 8.64Q51.06 9.23 50.76 9.87L50.76 9.87Q51.63 9.76 52.52 9.66Q53.41 9.56 54.10 9.52L54.10 9.52Q54.35 8.79 54.62 8.10Q54.89 7.41 55.16 6.83Q55.43 6.26 55.67 5.82Q55.92 5.39 56.11 5.18L56.11 5.18Q56.25 5.19 56.48 5.29Q56.71 5.38 56.95 5.50Q57.19 5.63 57.39 5.78Q57.58 5.92 57.65 6.05L57.65 6.05Q57.40 6.29 57.15 6.66Q56.90 7.04 56.65 7.53Q56.41 8.02 56.17 8.60Q55.93 9.17 55.72 9.79L55.72 9.79Q56 10.04 56 10.42L56 10.42Q56 10.68 55.89 10.91L55.89 10.91Q55.76 10.88 55.64 10.87Q55.51 10.86 55.37 10.85L55.37 10.85Q55.13 11.61 54.94 12.35Q54.74 13.09 54.61 13.76Q54.47 14.43 54.40 14.99Q54.32 15.55 54.32 15.93L54.32 15.93Q54.32 16.07 54.33 16.16Q54.33 16.24 54.35 16.30L54.35 16.30Q54.04 16.28 53.90 16.19Q53.76 16.10 53.69 16.00Q53.62 15.89 53.56 15.79Q53.51 15.68 53.38 15.62L53.38 15.62Q53.28 15.58 53.20 15.43Q53.12 15.27 53.06 15.08Q53.00 14.88 52.98 14.69Q52.95 14.49 52.95 14.36ZM65.18 16.24L65.18 16.24Q64.39 16.00 64.11 15.79Q63.83 15.57 63.83 15.19L63.83 15.19Q63.83 14.77 64.02 14.01Q64.22 13.24 64.53 12.31Q64.85 11.37 65.25 10.35Q65.66 9.32 66.08 8.39Q66.50 7.45 66.90 6.67Q67.30 5.89 67.61 5.46L67.61 5.46L67.51 4.87Q67.70 4.87 68.05 4.97Q68.40 5.07 68.76 5.21Q69.12 5.35 69.39 5.49Q69.66 5.64 69.69 5.74L69.69 5.74Q69.62 6.08 69.58 6.76Q69.54 7.43 69.54 8.20L69.54 8.20Q69.54 9.73 69.66 11.19Q69.78 12.66 70.21 14.17L70.21 14.17Q70.43 13.05 70.69 11.94Q70.95 10.82 71.23 9.81Q71.51 8.79 71.79 7.92Q72.07 7.06 72.33 6.40Q72.59 5.75 72.81 5.38Q73.04 5.01 73.22 4.98L73.22 4.98Q73.37 5.01 73.56 5.10Q73.74 5.19 73.91 5.32Q74.07 5.45 74.21 5.60Q74.35 5.75 74.44 5.91L74.44 5.91Q73.99 6.09 73.55 6.76Q73.11 7.43 72.71 8.39Q72.31 9.35 71.97 10.47Q71.62 11.59 71.36 12.68Q71.11 13.76 70.96 14.69Q70.81 15.61 70.80 16.17L70.80 16.17Q70.80 16.20 70.81 16.21L70.81 16.21Q70.77 16.23 70.72 16.23Q70.67 16.23 70.63 16.23L70.63 16.23Q69.99 16.23 69.49 16.07Q68.99 15.90 68.84 15.61L68.84 15.61Q68.54 14.43 68.35 13.34Q68.15 12.25 68.02 11.16Q67.89 10.07 67.81 8.95Q67.73 7.84 67.69 6.62L67.69 6.62Q67.42 7.04 67.13 7.72Q66.84 8.40 66.56 9.21Q66.28 10.02 66.02 10.92Q65.76 11.82 65.56 12.67Q65.37 13.52 65.25 14.29Q65.14 15.05 65.14 15.61L65.14 15.61Q65.14 15.90 65.15 16.03Q65.16 16.16 65.18 16.24ZM86.95 4.98L86.95 4.98Q87.22 5.10 87.50 5.27Q87.78 5.45 88.02 5.63Q88.26 5.81 88.42 5.98Q88.58 6.16 88.59 6.27L88.59 6.27Q88.35 6.22 88.12 6.20Q87.88 6.17 87.68 6.17L87.68 6.17Q87.05 6.17 86.43 6.48Q85.81 6.79 85.25 7.32Q84.69 7.85 84.21 8.57Q83.73 9.28 83.39 10.09Q83.05 10.91 82.85 11.77Q82.66 12.64 82.66 13.48L82.66 13.48Q82.66 14.57 83.02 15.11Q83.38 15.64 84.08 15.64L84.08 15.64Q84.42 15.64 84.81 15.51Q85.20 15.37 85.61 15.13Q86.02 14.90 86.41 14.56Q86.80 14.22 87.14 13.82L87.14 13.82Q87.63 13.23 88.02 12.48Q88.41 11.73 88.68 10.89Q88.96 10.05 89.10 9.16Q89.25 8.27 89.25 7.42L89.25 7.42Q89.25 7.08 89.24 6.85Q89.22 6.62 89.20 6.46Q89.18 6.30 89.17 6.20Q89.15 6.10 89.14 6.03L89.14 6.03Q89.31 6.12 89.51 6.24Q89.71 6.36 89.89 6.59Q90.06 6.82 90.18 7.20Q90.30 7.57 90.30 8.18L90.30 8.18Q90.30 9.16 90.07 10.10Q89.84 11.05 89.42 11.90Q89.01 12.75 88.45 13.50Q87.89 14.24 87.25 14.80L87.25 14.80Q86.41 15.54 85.46 15.95Q84.50 16.35 83.62 16.35L83.62 16.35Q82.33 16.35 81.66 15.53Q80.98 14.71 80.98 13.12L80.98 13.12Q80.98 12.26 81.16 11.31Q81.35 10.36 81.70 9.44Q82.04 8.51 82.52 7.68Q82.99 6.85 83.56 6.21Q84.13 5.57 84.78 5.19Q85.43 4.82 86.11 4.82L86.11 4.82Q86.34 4.82 86.53 4.85Q86.73 4.89 86.95 4.98ZM102.83 14.38L102.83 14.38Q103.18 14.98 103.18 15.54L103.18 15.54Q103.18 15.67 103.16 15.77Q103.14 15.88 103.11 15.99L103.11 15.99Q102.87 15.96 102.61 15.95Q102.35 15.93 102.07 15.93L102.07 15.93Q101.74 15.93 101.39 15.95Q101.05 15.97 100.63 16.02Q100.21 16.06 99.69 16.13Q99.18 16.20 98.49 16.31L98.49 16.31Q98.17 16.20 97.85 15.87Q97.52 15.54 97.24 15.08L97.24 15.08Q97.38 14.77 97.59 14.31Q97.80 13.86 98.08 13.21Q98.36 12.56 98.71 11.68Q99.05 10.81 99.44 9.66L99.44 9.66Q99.69 8.90 99.88 8.33Q100.06 7.76 100.20 7.22Q100.35 6.68 100.49 6.09Q100.63 5.50 100.80 4.73L100.80 4.73Q101.36 4.84 101.77 5.14Q102.19 5.45 102.56 6.01L102.56 6.01Q102.45 6.19 102.27 6.59Q102.09 7 101.84 7.58Q101.60 8.16 101.30 8.90Q101.01 9.63 100.69 10.47L100.69 10.47Q100.38 11.30 100.09 12.03Q99.79 12.75 99.56 13.34Q99.33 13.93 99.19 14.35Q99.05 14.77 99.05 14.98L99.05 14.98Q99.27 14.97 99.46 14.95Q99.64 14.94 99.83 14.90Q100.03 14.87 100.26 14.82Q100.49 14.77 100.81 14.69L100.81 14.69Q101.09 14.62 101.33 14.57Q101.57 14.52 101.80 14.48Q102.03 14.45 102.28 14.43Q102.52 14.41 102.83 14.38ZM117.63 4.98L117.63 4.98Q117.89 5.10 118.17 5.27Q118.45 5.45 118.69 5.63Q118.93 5.81 119.09 5.98Q119.25 6.16 119.27 6.27L119.27 6.27Q119.03 6.22 118.79 6.20Q118.55 6.17 118.36 6.17L118.36 6.17Q117.73 6.17 117.10 6.48Q116.48 6.79 115.92 7.32Q115.36 7.85 114.88 8.57Q114.41 9.28 114.06 10.09Q113.72 10.91 113.53 11.77Q113.33 12.64 113.33 13.48L113.33 13.48Q113.33 14.57 113.69 15.11Q114.06 15.64 114.76 15.64L114.76 15.64Q115.09 15.64 115.49 15.51Q115.88 15.37 116.28 15.13Q116.69 14.90 117.08 14.56Q117.47 14.22 117.81 13.82L117.81 13.82Q118.30 13.23 118.69 12.48Q119.08 11.73 119.36 10.89Q119.63 10.05 119.78 9.16Q119.92 8.27 119.92 7.42L119.92 7.42Q119.92 7.08 119.91 6.85Q119.90 6.62 119.88 6.46Q119.85 6.30 119.84 6.20Q119.83 6.10 119.81 6.03L119.81 6.03Q119.98 6.12 120.18 6.24Q120.39 6.36 120.56 6.59Q120.74 6.82 120.86 7.20Q120.97 7.57 120.97 8.18L120.97 8.18Q120.97 9.16 120.74 10.10Q120.51 11.05 120.10 11.90Q119.69 12.75 119.13 13.50Q118.57 14.24 117.92 14.80L117.92 14.80Q117.08 15.54 116.13 15.95Q115.18 16.35 114.30 16.35L114.30 16.35Q113.01 16.35 112.33 15.53Q111.65 14.71 111.65 13.12L111.65 13.12Q111.65 12.26 111.84 11.31Q112.03 10.36 112.37 9.44Q112.71 8.51 113.19 7.68Q113.67 6.85 114.23 6.21Q114.80 5.57 115.45 5.19Q116.10 4.82 116.79 4.82L116.79 4.82Q117.01 4.82 117.21 4.85Q117.40 4.89 117.63 4.98ZM136.05 10.72L136.05 10.72Q136.42 10.72 136.63 10.98Q136.84 11.23 136.84 11.68L136.84 11.68Q136.84 11.79 136.82 11.91Q136.81 12.03 136.78 12.11L136.78 12.11Q136.49 12.04 136.14 12.03L136.14 12.03Q136.05 12.64 135.69 13.32Q135.32 14 134.81 14.60Q134.29 15.19 133.67 15.64Q133.06 16.09 132.45 16.24L132.45 16.24Q130.58 16.20 129.72 15.27Q128.86 14.34 128.86 12.36L128.86 12.36Q128.86 10.92 129.39 9.57Q129.92 8.22 130.80 7.17Q131.68 6.12 132.83 5.48Q133.97 4.84 135.20 4.84L135.20 4.84Q136.16 4.84 136.70 5.25Q137.24 5.66 137.24 6.40L137.24 6.40Q137.24 6.89 137.01 7.31Q136.78 7.73 136.25 8.22L136.25 8.22Q135.93 8.12 135.69 7.88Q135.45 7.63 135.39 7.31L135.39 7.31Q135.87 6.96 136.07 6.66Q136.26 6.37 136.26 5.96L136.26 5.96Q136.26 5.32 135.49 5.32L135.49 5.32Q134.86 5.32 134.14 5.79Q133.42 6.26 132.69 7.14L132.69 7.14Q131.66 8.39 131.18 9.71Q130.70 11.03 130.70 12.68L130.70 12.68Q130.70 13.30 130.83 13.80Q130.96 14.31 131.17 14.69Q131.38 15.06 131.66 15.29Q131.95 15.51 132.29 15.54L132.29 15.54Q132.73 15.44 133.18 15.09Q133.63 14.73 134.00 14.25Q134.37 13.76 134.63 13.21Q134.89 12.66 134.95 12.15L134.95 12.15Q134.55 12.24 134.20 12.31Q133.84 12.39 133.52 12.39L133.52 12.39Q133.10 12.39 132.78 12.18Q132.47 11.97 132.36 11.61L132.36 11.61Q132.61 11.47 133.09 11.31Q133.57 11.16 134.12 11.03Q134.67 10.89 135.19 10.81Q135.72 10.72 136.05 10.72ZM149.03 10.35L149.03 10.35Q150.08 9.20 150.91 7.91Q151.75 6.62 152.46 5.01L152.46 5.01Q152.82 5.05 153.16 5.21Q153.50 5.36 153.69 5.56L153.69 5.56Q152.92 6.48 152.30 7.24Q151.68 7.99 151.16 8.66Q150.64 9.32 150.20 9.93Q149.76 10.54 149.34 11.16L149.34 11.16Q149.13 11.87 148.95 12.60Q148.76 13.33 148.62 13.99Q148.48 14.66 148.41 15.22Q148.33 15.79 148.33 16.20L148.33 16.20Q148.18 16.20 147.84 16.14Q147.50 16.07 147.15 15.99Q146.80 15.90 146.52 15.82Q146.23 15.74 146.17 15.68L146.17 15.68Q146.40 15.30 146.61 14.75Q146.83 14.20 147.04 13.59Q147.25 12.98 147.45 12.36Q147.64 11.73 147.81 11.20L147.81 11.20Q147.46 10.11 147.13 9.15Q146.80 8.19 146.50 7.41Q146.19 6.64 145.91 6.08Q145.63 5.52 145.38 5.22L145.38 5.22Q145.52 5.17 145.80 5.11Q146.09 5.05 146.43 5.00Q146.78 4.94 147.13 4.91Q147.49 4.87 147.77 4.86L147.77 4.86Q147.77 5.21 147.83 5.71Q147.90 6.22 148.00 6.79Q148.11 7.36 148.25 7.95Q148.39 8.54 148.53 9.03Q148.67 9.52 148.80 9.88Q148.93 10.23 149.03 10.35Z"></path></g></svg>