<svg data-v-423bf9ae="" xmlns="http://www.w3.org/2000/svg" viewBox="0 0 281.63265887025716 60" class="font"><!----><!----><!----><g data-v-423bf9ae="" id="0ea562c6-f3f2-4bb2-9066-bbe2ca4c2304" fill="black" transform="matrix(7.653061541007602,0,0,7.653061541007602,-8.112243797793099,-25.71428851483524)"><path d="M5.04 10.08Q5.10 10.30 5.10 10.64L5.10 10.64Q5.10 10.96 5.04 11.20L5.04 11.20L1.12 11.20Q1.06 10.96 1.06 10.64L1.06 10.64Q1.06 10.30 1.12 10.08L1.12 10.08Q1.06 9.84 1.06 9.52L1.06 9.52Q1.06 9.18 1.12 8.96L1.12 8.96Q1.06 8.72 1.06 8.40L1.06 8.40Q1.06 8.06 1.12 7.84L1.12 7.84Q1.06 7.60 1.06 7.28L1.06 7.28Q1.06 6.94 1.12 6.72L1.12 6.72Q1.06 6.48 1.06 6.16L1.06 6.16Q1.06 5.82 1.12 5.60L1.12 5.60Q1.06 5.36 1.06 5.04L1.06 5.04Q1.06 4.70 1.12 4.48L1.12 4.48Q1.06 4.24 1.06 3.92L1.06 3.92Q1.06 3.58 1.12 3.36L1.12 3.36L2.24 3.36Q2.30 3.58 2.30 3.92L2.30 3.92Q2.30 4.24 2.24 4.48L2.24 4.48Q2.30 4.70 2.30 5.04L2.30 5.04Q2.30 5.36 2.24 5.60L2.24 5.60Q2.30 5.82 2.30 6.16L2.30 6.16Q2.30 6.48 2.24 6.72L2.24 6.72Q2.30 6.94 2.30 7.28L2.30 7.28Q2.30 7.60 2.24 7.84L2.24 7.84Q2.30 8.06 2.30 8.40L2.30 8.40Q2.30 8.72 2.24 8.96L2.24 8.96Q2.30 9.18 2.30 9.52L2.30 9.52Q2.30 9.84 2.24 10.08L2.24 10.08L5.04 10.08ZM8.96 4.48L7.84 4.48Q7.78 4.24 7.78 3.92L7.78 3.92Q7.78 3.58 7.84 3.36L7.84 3.36L8.96 3.36Q9.02 3.58 9.02 3.92L9.02 3.92Q9.02 4.24 8.96 4.48L8.96 4.48ZM10.08 10.08Q10.14 10.30 10.14 10.64L10.14 10.64Q10.14 10.96 10.08 11.20L10.08 11.20L6.72 11.20Q6.66 10.96 6.66 10.64L6.66 10.64Q6.66 10.30 6.72 10.08L6.72 10.08L7.84 10.08Q7.78 9.84 7.78 9.52L7.78 9.52Q7.78 9.18 7.84 8.96L7.84 8.96Q7.78 8.72 7.78 8.40L7.78 8.40Q7.78 8.06 7.84 7.84L7.84 7.84Q7.78 7.60 7.78 7.28L7.78 7.28Q7.78 6.94 7.84 6.72L7.84 6.72L7.00 6.72Q6.94 6.48 6.94 6.16L6.94 6.16Q6.94 5.82 7.00 5.60L7.00 5.60L8.96 5.60Q9.02 5.82 9.02 6.16L9.02 6.16Q9.02 6.48 8.96 6.72L8.96 6.72Q9.02 6.94 9.02 7.28L9.02 7.28Q9.02 7.60 8.96 7.84L8.96 7.84Q9.02 8.06 9.02 8.40L9.02 8.40Q9.02 8.72 8.96 8.96L8.96 8.96Q9.02 9.18 9.02 9.52L9.02 9.52Q9.02 9.84 8.96 10.08L8.96 10.08L10.08 10.08ZM12.80 6.16Q12.80 6.48 12.74 6.72L12.74 6.72L13.30 6.72Q13.36 6.94 13.36 7.28L13.36 7.28Q13.36 7.60 13.30 7.84L13.30 7.84L12.88 7.84Q12.94 8.06 12.94 8.40L12.94 8.40Q12.94 8.72 12.88 8.96L12.88 8.96Q12.94 9.18 12.94 9.52L12.94 9.52Q12.94 9.84 12.88 10.08L12.88 10.08Q12.94 10.30 12.94 10.64L12.94 10.64Q12.94 10.96 12.88 11.20L12.88 11.20L11.76 11.20Q11.70 10.96 11.70 10.64L11.70 10.64Q11.70 10.30 11.76 10.08L11.76 10.08Q11.70 9.84 11.70 9.52L11.70 9.52Q11.70 9.18 11.76 8.96L11.76 8.96Q11.70 8.72 11.70 8.40L11.70 8.40Q11.70 8.06 11.76 7.84L11.76 7.84Q11.70 7.60 11.70 7.28L11.70 7.28Q11.70 6.94 11.76 6.72L11.76 6.72Q11.70 6.48 11.70 6.16L11.70 6.16Q11.70 5.82 11.76 5.60L11.76 5.60L12.74 5.60Q12.80 5.82 12.80 6.16L12.80 6.16ZM16.24 7.84Q16.30 8.06 16.30 8.40L16.30 8.40Q16.30 8.72 16.24 8.96L16.24 8.96Q16.30 9.18 16.30 9.52L16.30 9.52Q16.30 9.84 16.24 10.08L16.24 10.08Q16.30 10.30 16.30 10.64L16.30 10.64Q16.30 10.96 16.24 11.20L16.24 11.20L15.12 11.20Q15.06 10.96 15.06 10.64L15.06 10.64Q15.06 10.30 15.12 10.08L15.12 10.08Q15.06 9.84 15.06 9.52L15.06 9.52Q15.06 9.18 15.12 8.96L15.12 8.96Q15.06 8.72 15.06 8.40L15.06 8.40Q15.06 8.06 15.12 7.84L15.12 7.84Q15.06 7.60 15.06 7.28L15.06 7.28Q15.06 6.94 15.12 6.72L15.12 6.72L13.30 6.72Q13.24 6.48 13.24 6.16L13.24 6.16Q13.24 5.82 13.30 5.60L13.30 5.60L15.54 5.60Q15.60 5.82 15.60 6.16L15.60 6.16Q15.60 6.48 15.54 6.72L15.54 6.72L16.24 6.72Q16.30 6.94 16.30 7.28L16.30 7.28Q16.30 7.60 16.24 7.84L16.24 7.84ZM21.90 8.40Q21.90 8.72 21.84 8.96L21.84 8.96L21.42 8.96Q21.48 9.18 21.48 9.52L21.48 9.52Q21.48 9.84 21.42 10.08L21.42 10.08L20.72 10.08Q20.78 10.30 20.78 10.64L20.78 10.64Q20.78 10.96 20.72 11.20L20.72 11.20L18.48 11.20Q18.42 10.96 18.42 10.64L18.42 10.64Q18.42 10.30 18.48 10.08L18.48 10.08L17.78 10.08Q17.72 9.84 17.72 9.52L17.72 9.52Q17.72 9.18 17.78 8.96L17.78 8.96L17.36 8.96Q17.30 8.72 17.30 8.40L17.30 8.40Q17.30 8.06 17.36 7.84L17.36 7.84L17.78 7.84Q17.72 7.60 17.72 7.28L17.72 7.28Q17.72 6.94 17.78 6.72L17.78 6.72L18.48 6.72Q18.42 6.48 18.42 6.16L18.42 6.16Q18.42 5.82 18.48 5.60L18.48 5.60L20.72 5.60Q20.78 5.82 20.78 6.16L20.78 6.16Q20.78 6.48 20.72 6.72L20.72 6.72L21.42 6.72Q21.48 6.94 21.48 7.28L21.48 7.28Q21.48 7.60 21.42 7.84L21.42 7.84L21.84 7.84Q21.90 8.06 21.90 8.40L21.90 8.40ZM20.30 8.96L20.72 8.96Q20.66 8.72 20.66 8.40L20.66 8.40Q20.66 8.06 20.72 7.84L20.72 7.84L20.30 7.84Q20.24 7.60 20.24 7.28L20.24 7.28Q20.24 6.94 20.30 6.72L20.30 6.72L18.90 6.72Q18.96 6.94 18.96 7.28L18.96 7.28Q18.96 7.60 18.90 7.84L18.90 7.84L18.48 7.84Q18.54 8.06 18.54 8.40L18.54 8.40Q18.54 8.72 18.48 8.96L18.48 8.96L18.90 8.96Q18.96 9.18 18.96 9.52L18.96 9.52Q18.96 9.84 18.90 10.08L18.90 10.08L20.30 10.08Q20.24 9.84 20.24 9.52L20.24 9.52Q20.24 9.18 20.30 8.96L20.30 8.96ZM27.44 6.72Q27.50 6.94 27.50 7.28L27.50 7.28Q27.50 7.60 27.44 7.84L27.44 7.84L26.32 7.84Q26.26 7.60 26.26 7.28L26.26 7.28Q26.26 6.94 26.32 6.72L26.32 6.72L25.34 6.72Q25.40 6.94 25.40 7.28L25.40 7.28Q25.40 7.60 25.34 7.84L25.34 7.84L24.92 7.84Q24.98 8.06 24.98 8.40L24.98 8.40Q24.98 8.72 24.92 8.96L24.92 8.96Q24.98 9.18 24.98 9.52L24.98 9.52Q24.98 9.84 24.92 10.08L24.92 10.08L25.76 10.08Q25.82 10.30 25.82 10.64L25.82 10.64Q25.82 10.96 25.76 11.20L25.76 11.20L22.96 11.20Q22.90 10.96 22.90 10.64L22.90 10.64Q22.90 10.30 22.96 10.08L22.96 10.08L23.80 10.08Q23.74 9.84 23.74 9.52L23.74 9.52Q23.74 9.18 23.80 8.96L23.80 8.96Q23.74 8.72 23.74 8.40L23.74 8.40Q23.74 8.06 23.80 7.84L23.80 7.84Q23.74 7.60 23.74 7.28L23.74 7.28Q23.74 6.94 23.80 6.72L23.80 6.72L22.96 6.72Q22.90 6.48 22.90 6.16L22.90 6.16Q22.90 5.82 22.96 5.60L22.96 5.60L24.36 5.60Q24.42 5.82 24.42 6.16L24.42 6.16Q24.42 6.48 24.36 6.72L24.36 6.72L24.92 6.72Q24.86 6.48 24.86 6.16L24.86 6.16Q24.86 5.82 24.92 5.60L24.92 5.60L27.02 5.60Q27.08 5.82 27.08 6.16L27.08 6.16Q27.08 6.48 27.02 6.72L27.02 6.72L27.44 6.72ZM33.10 9.52Q33.10 9.84 33.04 10.08L33.04 10.08Q33.10 10.30 33.10 10.64L33.10 10.64Q33.10 10.96 33.04 11.20L33.04 11.20L31.92 11.20Q31.86 10.96 31.86 10.64L31.86 10.64Q31.86 10.30 31.92 10.08L31.92 10.08Q31.86 9.84 31.86 9.52L31.86 9.52Q31.86 9.18 31.92 8.96L31.92 8.96L29.68 8.96Q29.74 9.18 29.74 9.52L29.74 9.52Q29.74 9.84 29.68 10.08L29.68 10.08Q29.74 10.30 29.74 10.64L29.74 10.64Q29.74 10.96 29.68 11.20L29.68 11.20L28.56 11.20Q28.50 10.96 28.50 10.64L28.50 10.64Q28.50 10.30 28.56 10.08L28.56 10.08Q28.50 9.84 28.50 9.52L28.50 9.52Q28.50 9.18 28.56 8.96L28.56 8.96L28.98 8.96Q28.92 8.72 28.92 8.40L28.92 8.40Q28.92 8.06 28.98 7.84L28.98 7.84Q28.92 7.60 28.92 7.28L28.92 7.28Q28.92 6.94 28.98 6.72L28.98 6.72L29.26 6.72Q29.20 6.48 29.20 6.16L29.20 6.16Q29.20 5.82 29.26 5.60L29.26 5.60L29.68 5.60Q29.62 5.36 29.62 5.04L29.62 5.04Q29.62 4.70 29.68 4.48L29.68 4.48L29.96 4.48Q29.90 4.24 29.90 3.92L29.90 3.92Q29.90 3.58 29.96 3.36L29.96 3.36L31.64 3.36Q31.70 3.58 31.70 3.92L31.70 3.92Q31.70 4.24 31.64 4.48L31.64 4.48L31.92 4.48Q31.98 4.70 31.98 5.04L31.98 5.04Q31.98 5.36 31.92 5.60L31.92 5.60L32.34 5.60Q32.40 5.82 32.40 6.16L32.40 6.16Q32.40 6.48 32.34 6.72L32.34 6.72L32.62 6.72Q32.68 6.94 32.68 7.28L32.68 7.28Q32.68 7.60 32.62 7.84L32.62 7.84Q32.68 8.06 32.68 8.40L32.68 8.40Q32.68 8.72 32.62 8.96L32.62 8.96L33.04 8.96Q33.10 9.18 33.10 9.52L33.10 9.52ZM31.50 7.84Q31.44 7.60 31.44 7.28L31.44 7.28Q31.44 6.94 31.50 6.72L31.50 6.72L31.22 6.72Q31.16 6.48 31.16 6.16L31.16 6.16Q31.16 5.82 31.22 5.60L31.22 5.60L30.38 5.60Q30.44 5.82 30.44 6.16L30.44 6.16Q30.44 6.48 30.38 6.72L30.38 6.72L30.10 6.72Q30.16 6.94 30.16 7.28L30.16 7.28Q30.16 7.60 30.10 7.84L30.10 7.84L31.50 7.84ZM36.96 10.08L37.80 10.08Q37.86 10.30 37.86 10.64L37.86 10.64Q37.86 10.96 37.80 11.20L37.80 11.20L35 11.20Q34.94 10.96 34.94 10.64L34.94 10.64Q34.94 10.30 35 10.08L35 10.08L35.84 10.08Q35.78 9.84 35.78 9.52L35.78 9.52Q35.78 9.18 35.84 8.96L35.84 8.96Q35.78 8.72 35.78 8.40L35.78 8.40Q35.78 8.06 35.84 7.84L35.84 7.84Q35.78 7.60 35.78 7.28L35.78 7.28Q35.78 6.94 35.84 6.72L35.84 6.72Q35.78 6.48 35.78 6.16L35.78 6.16Q35.78 5.82 35.84 5.60L35.84 5.60Q35.78 5.36 35.78 5.04L35.78 5.04Q35.78 4.70 35.84 4.48L35.84 4.48L35 4.48Q34.94 4.24 34.94 3.92L34.94 3.92Q34.94 3.58 35 3.36L35 3.36L37.80 3.36Q37.86 3.58 37.86 3.92L37.86 3.92Q37.86 4.24 37.80 4.48L37.80 4.48L36.96 4.48Q37.02 4.70 37.02 5.04L37.02 5.04Q37.02 5.36 36.96 5.60L36.96 5.60Q37.02 5.82 37.02 6.16L37.02 6.16Q37.02 6.48 36.96 6.72L36.96 6.72Q37.02 6.94 37.02 7.28L37.02 7.28Q37.02 7.60 36.96 7.84L36.96 7.84Q37.02 8.06 37.02 8.40L37.02 8.40Q37.02 8.72 36.96 8.96L36.96 8.96Q37.02 9.18 37.02 9.52L37.02 9.52Q37.02 9.84 36.96 10.08L36.96 10.08Z"></path></g><!----><!----></svg>